<svg xmlns="http://www.w3.org/2000/svg" viewBox="0 0 720 440" role="img">
  <defs><linearGradient id="bg" x1="0" y1="0" x2="1" y2="1"><stop offset="0%" stop-color="#142030"/><stop offset="100%" stop-color="#0C0A08"/></linearGradient></defs>
  <rect width="720" height="440" rx="16" fill="url(#bg)"/>
  <rect x="0" y="0" width="720" height="40" fill="#0C1520"/>
  <circle cx="22" cy="20" r="7" fill="#D97706"/>
  <text x="36" y="24" fill="#EAF4FC" font-family="Inter,sans-serif" font-size="12" font-weight="700">JeffCo YardCam</text>
<text x="170" y="24" fill="#D97706" font-family="Inter,sans-serif" font-size="11" font-weight="600">Live</text>
<text x="242" y="24" fill="#4A6074" font-family="Inter,sans-serif" font-size="11" font-weight="400">Materials</text>
<text x="329" y="24" fill="#4A6074" font-family="Inter,sans-serif" font-size="11" font-weight="400">Zones</text>
<text x="404" y="24" fill="#4A6074" font-family="Inter,sans-serif" font-size="11" font-weight="400">Automations</text>
  <rect x="16" y="52" width="420" height="36" rx="8" fill="rgba(217,119,6,0.12)" stroke="#D97706"/>
  <text x="28" y="74" fill="#D97706" font-size="12" font-weight="700" font-family="Inter,sans-serif">Movement on Aggregate Pad — approx may refresh</text>
  <rect x="16" y="108" width="220" height="140" rx="12" fill="#142030" stroke="#D97706"/>
  <text x="32" y="140" fill="#D97706" font-size="14" font-weight="700" font-family="Inter,sans-serif">Aggregate · Pad A</text>
  <text x="32" y="164" fill="#8BA3B8" font-size="12" font-family="Inter,sans-serif">APPROX · ~42 yd³</text>
  <rect x="252" y="108" width="220" height="140" rx="12" fill="#142030" stroke="#D97706"/>
  <text x="268" y="140" fill="#D97706" font-size="14" font-weight="700" font-family="Inter,sans-serif">Lumber stack</text>
  <text x="268" y="164" fill="#8BA3B8" font-size="12" font-family="Inter,sans-serif">APPROX · ~180 pcs</text>
  <rect x="488" y="108" width="216" height="140" rx="12" fill="#142030" stroke="#FBBF24"/>
  <text x="504" y="140" fill="#FBBF24" font-size="14" font-weight="700" font-family="Inter,sans-serif">Scrap bay</text>
  <text x="504" y="164" fill="#8BA3B8" font-size="12" font-family="Inter,sans-serif">MOTION · 2m ago</text>
  <rect x="16" y="270" width="688" height="140" rx="12" fill="#0C1520" stroke="#2A3E52"/>
  <text x="32" y="320" fill="#EAF4FC" font-size="13" font-weight="700" font-family="Inter,sans-serif">Yard board · stockpiles</text>
  <text x="32" y="350" fill="#8BA3B8" font-size="12" font-family="Inter,sans-serif">Movement ≠ legal custody · approx honesty forever</text>
</svg>
